# xmcd CD database file
#
# Track frame offsets:
#	150
#	26394
#	48067
#	64494
#	82807
#
# Disc length: 1399 seconds
#
# Revision: 0
# Processed by: cddbd v1.5.1PL0 Copyright (c) Steve Scherf et al.
# Submitted via: CDex 1.50
#
DISCID=31057505
DTITLE=モダーン今夜 - 赤い夜の足音
DYEAR=2003
DGENRE=Jazz
TTITLE0=星屑サンバ
TTITLE1=うたかた花電車
TTITLE2=涙の雨
TTITLE3=レジーナ
TTITLE4=かくれんぼ
EXTD=YEAR: 2003
EXTT0=
EXTT1=
EXTT2=
EXTT3=
EXTT4=
PLAYORDER=
